<mxfile host="app.diagrams.net" modified="2023-07-27T14:38:48.807Z" agent="Mozilla/5.0 (Windows NT 10.0; Win64; x64; rv:109.0) Gecko/20100101 Firefox/115.0" version="21.1.2" etag="0uLJvQj7BHGd0DQG_v0y" type="github">
  <diagram name="PÃ¡gina-1" id="7hq38ZhB_GoKcH__iXF7">
    <mxGraphModel>
      <root>
        <mxCell id="0" />
        <mxCell id="1" parent="0" />
      </root>
    </mxGraphModel>
  </diagram>
</mxfile>
